<svg data-name="Group 38956" xmlns="http://www.w3.org/2000/svg" width="216" height="216" viewBox="0 0 216 216">
    <defs>
        <clipPath id="cq073hstpa">
            <path data-name="Rectangle 17611" style="fill:none" d="M0 0h216v216H0z"/>
        </clipPath>
        <clipPath id="ywrsvz1oib">
            <path data-name="Rectangle 17605" transform="translate(6.974 7.469)" style="fill:#fff"
                  d="M0 0h202.554v158.616H0z"/>
        </clipPath>
        <clipPath id="hj78f2167c">
            <path data-name="Rectangle 17607" transform="translate(104.619 101.722)" style="fill:none"
                  d="M0 0h13.891v4.524H0z"/>
        </clipPath>
        <clipPath id="ob16owptzd">
            <path data-name="Rectangle 17608" transform="translate(172.024 53.334)" style="fill:none"
                  d="M0 0h40.373v35.303H0z"/>
        </clipPath>
        <clipPath id="cm83v0jyue">
            <path data-name="Rectangle 17609" transform="translate(184.971 64.11)" style="fill:none"
                  d="M0 0h9.644v14.086H0z"/>
        </clipPath>
    </defs>
    <g data-name="Group 38970" style="clip-path:url(#cq073hstpa)">
        <g data-name="Group 38969">
            <g data-name="Group 38968" style="clip-path:url(#cq073hstpa)">
                <g data-name="Group 38958" style="opacity:.499">
                    <g data-name="Group 38957">
                        <g data-name="Group 38956" style="clip-path:url(#ywrsvz1oib)">
                            <path data-name="Path 70724"
                                  d="M209.447 122.871v-1.634c0-1.057 0-2.581-.038-4.5l.071.071-23.172.043c.052-.052-.119.119.119-.114v6.12l-.114-.119 16.513.053 4.873.033h1.662a.641.641 0 0 1 .124 0h-1.729l-4.9.11-16.6.052h-.114v-6.244l.119-.119 23.172.042h.086v.077c0 1.933-.029 3.472-.038 4.539v1.491a.428.428 0 0 1-.043.1"
                                  style="fill:#fff"/>
                            <path data-name="Path 70725"
                                  d="M206.908 33.732a.5.5 0 0 1 0-.109V32.1c0-1.057-.024-2.578-.038-4.5l.071.071-23.172.048c.052-.052-.119.118.114-.119v6.129l-.119-.114 16.514.053 4.877.033h1.786a.4.4 0 0 1-.109 0h-1.624l-4.849.034-16.595.052h-.114v-6.175c.233-.233.062-.066.119-.119l23.172.048h.072v.071c0 1.939-.034 3.473-.043 4.54v1.494a.5.5 0 0 1-.062.086"
                                  style="fill:#fff"/>
                            <path data-name="Rectangle 17603" transform="translate(83.694 38.272)" style="fill:#fff"
                                  d="M0 0h23.173v6.13H0z"/>
                            <path data-name="Path 70726"
                                  d="M97.068 50.861v-1.634c0-1.057 0-2.577-.038-4.5l.071.071-23.172.048c.052-.052-.119.114.119-.119v6.12l-.114-.114 16.513.053 4.873.033h1.662a.642.642 0 0 1 .124 0h-1.729l-4.849.033-16.594.053h-.115v-6.231l.119-.119 23.173.047h.071v.072c0 1.934-.028 3.472-.038 4.539V50.7a.256.256 0 0 1-.076.157"
                                  style="fill:#fff"/>
                            <path data-name="Rectangle 17604" transform="translate(167.02 144.137)" style="fill:#fff"
                                  d="M0 0h23.173v6.13H0z"/>
                            <path data-name="Path 70727"
                                  d="M180.394 156.725a.725.725 0 0 1 0-.114v-1.52c0-1.056-.024-2.577-.038-4.5l.071.071-23.172.048c.052-.053-.119.113.114-.119v6.119l-.114-.113 16.514.052 4.872.034h.057l-4.848.033-16.624.119h-.119V150.6l.119-.118 23.173.048h.071v.07c0 1.935-.028 3.473-.038 4.541v1.491a.769.769 0 0 1-.038.089"
                                  style="fill:#fff"/>
                            <path data-name="Path 70728"
                                  d="M38.273 28.669a.506.506 0 0 1 0-.11v-1.524c0-1.057 0-2.577-.038-4.5l.071.071-23.206.057c.053-.053-.119.119.115-.119v6.125l-.115-.114 16.514.052 4.873.033h1.786a.405.405 0 0 1-.11 0h-1.624l-4.844.034-16.595.052h-.119v-6.178l.119-.119 23.173.048h.071v.071c0 1.939-.028 3.473-.038 4.54v1.5a.636.636 0 0 1-.033.086"
                                  style="fill:#fff"/>
                            <path data-name="Path 70729"
                                  d="M176.451 19.867v-1.634c0-1.057 0-2.581-.039-4.5l.071.071-23.172.043.119-.114v6.13l-.114-.114 16.513.052 4.873.029h1.667a.592.592 0 0 1 .119 0h-1.729l-4.849.033-16.594.052h-.116v-6.169l.119-.119 23.173.048h.071v.071c0 1.934-.028 3.473-.038 4.54v1.491a.433.433 0 0 1-.075.09"
                                  style="fill:#fff"/>
                            <path data-name="Path 70730"
                                  d="M179.613 13.737a.59.59 0 0 1 0-.119v-1.553c0-1.076-.029-2.591-.048-4.458l.086.081-13.922.033.114-.114v6.12l-.11-.114 9.96.053 2.9.033h1.062a1.527 1.527 0 0 1-.253 0h-.762l-2.858.028-10.035.053h-.115V7.616c-.028 0 .224-.223.119-.119l13.923.034h.086v.085c0 1.906-.038 3.42-.048 4.511v1.21c0 .3-.1.4-.1.4"
                                  style="fill:#fff"/>
                            <path data-name="Path 70731"
                                  d="M30.223 166.033a1.01 1.01 0 0 1 0-.11V164.4c0-1.057 0-2.582-.038-4.5l.071.071-23.172.048.116-.119v6.125l-.114-.114 16.513.052 4.873.034h.057l-4.849.033-16.594.052h-.112v-6.177c.238-.234.067-.062.119-.115l23.173.043h.071v.072c0 1.938-.028 3.472-.038 4.544v1.491c-.071.09-.071.09-.076.09"
                                  style="fill:#fff"/>
                            <path data-name="Path 70732"
                                  d="M33.386 159.912a.543.543 0 0 1 0-.114v-1.553c0-1.077-.029-2.6-.048-4.463l.086.086-13.924.032c-.105.1.142-.143.114-.119v6.125l-.11-.109 9.96.052 2.9.033h1.062a1.526 1.526 0 0 1-.253 0h-.762l-2.858.034-10.035.052h-.115v-6.238l.119-.12 13.861.086h.086v.086c0 1.9-.038 3.425-.048 4.511v1.214a1.3 1.3 0 0 1-.038.4"
                                  style="fill:#fff"/>
                            <path data-name="Path 70733"
                                  d="M103.194 115.634a.506.506 0 0 1 0-.11V114c0-1.062-.024-2.582-.038-4.5l.071.071-23.172.048c.052-.052-.119.119.114-.119v6.12l-.114-.114 16.514.053 4.872.033h.053l-4.845.028-16.594.053h-.119v-6.24l.119-.119 23.172.048h.072v.071c0 1.939-.029 3.472-.038 4.544v1.491a.59.59 0 0 1-.067.162"
                                  style="fill:#fff"/>
                            <path data-name="Path 70734"
                                  d="M106.338 109.5a.312.312 0 0 1 0-.114v-.329l-.024-1.229c0-1.072 0-2.591-.043-4.458l.086.086-13.927.033.119-.119v6.13l-.115-.109 9.96.052 2.906.029h1.062a1.838 1.838 0 0 1-.257 0h-.758l-2.858.033-10.035.052h-.11v-6.239c0 .024.229-.224.119-.119l13.927.033h.086v.086c0 1.9-.033 3.424-.043 4.51 0 .51 0 .915-.024 1.21a2.1 2.1 0 0 1-.071.467"
                                  style="fill:#fff"/>
                        </g>
                    </g>
                </g>
                <path data-name="Path 70735"
                      d="M10.283 186.426 3.1 196.177l12.094 9c.8-1.2-3.745-8.184-3.745-8.184l4.86-6.059z"
                      style="fill:#2e546a"/>
                <path data-name="Path 70736"
                      d="M8.117 193.692a.611.611 0 0 0-.759.308.6.6 0 0 0 .3.759.648.648 0 0 0 .8-.332.616.616 0 0 0-.4-.755"
                      style="fill:#174159"/>
                <path data-name="Path 70737" d="m3.086 196.2.763-1.047 11.3 9.1s.36.639 0 .971z" style="fill:#174159"/>
                <path data-name="Path 70738"
                      d="M11.714 197.081c-.044.06-.36-.132-.8-.16s-.772.108-.8.044.308-.34.828-.3.8.372.771.416"
                      style="fill:#174159"/>
                <path data-name="Path 70739"
                      d="M12.573 198.552c-.032.068-.36-.024-.747.076s-.64.324-.7.276.156-.4.64-.524.847.116.807.172"
                      style="fill:#174159"/>
                <path data-name="Path 70740"
                      d="M12.162 200.606c-.064-.028.076-.4.468-.6s.763-.132.751-.064-.312.111-.628.291-.527.4-.591.368"
                      style="fill:#174159"/>
                <path data-name="Path 70741"
                      d="M12.649 195.578c-.068.036-.276-.248-.627-.472s-.688-.315-.684-.4.4-.1.823.172.552.675.488.7"
                      style="fill:#174159"/>
                <path data-name="Path 70742"
                      d="M39.521 145.607c.216 1.223.559 11.626.779 17.113s-.327 8.184-.955 9.415-24.29 18.665-26.092 22.844l-6-4.832S16.05 174.365 19.8 171.5s10.962-5.5 10.962-5.5l-2.05-30.049 9.827-.536z"
                      style="fill:#174159"/>
                <path data-name="Path 70743"
                      d="m17.529 196.07-.1 12.1 15.071.208c-.068-1.439-7.825-4.44-7.825-4.44l.4-7.757z"
                      style="fill:#2e546a"/>
                <path data-name="Path 70744"
                      d="M20.019 203.235a.615.615 0 0 0-.436.695.6.6 0 0 0 .688.44.651.651 0 0 0 .455-.739.611.611 0 0 0-.763-.376"
                      style="fill:#174159"/>
                <path data-name="Path 70745" d="M17.421 208.211v-1.3l14.487.751s.663.308.58.78z" style="fill:#174159"/>
                <path data-name="Path 70746"
                      d="M24.9 203.879c0 .076-.372.1-.735.336s-.564.535-.632.507.048-.455.5-.727.9-.184.871-.116"
                      style="fill:#174159"/>
                <path data-name="Path 70747"
                      d="M26.5 204.57c0 .072-.308.192-.56.5s-.331.639-.4.631-.116-.42.208-.8.751-.416.751-.332"
                      style="fill:#174159"/>
                <path data-name="Path 70748"
                      d="M27.36 206.46c-.068 0-.164-.356.028-.755s.543-.556.571-.5-.183.276-.339.608-.188.635-.26.643"
                      style="fill:#174159"/>
                <path data-name="Path 70749"
                      d="M24.806 202.1c-.032.068-.368-.04-.8 0s-.744.148-.8.084.276-.32.768-.34.867.2.831.256"
                      style="fill:#174159"/>
                <path data-name="Path 70750"
                      d="M40.608 134.165c0 .707 1.147 18.615-4.708 31.572a38.281 38.281 0 0 0-2.4 5.823c-.371 1.77-7.945 31.136-7.945 31.136l-8.752-.32s-1.4-14.711 0-23.227 4-7.518 4-13.017-1.307-16.9-1.307-16.9-1.91-3.114-2.562-9.152c-.531-4.9 1.779-10.159 1.779-10.159l2.282-4.041 19.305-1.011z"
                      style="fill:#174159"/>
                <path data-name="Path 70751"
                      d="M40.608 134.165v-.611c0-.4-.024-1-.04-1.791-.036-1.578-.1-3.9-.168-6.91v-.044h-.048l-19.306.983h-.04l-.024.036c-.708 1.255-1.487 2.626-2.286 4.041a25.805 25.805 0 0 0-1.387 4.436 19.753 19.753 0 0 0-.484 4.872 30.091 30.091 0 0 0 .8 5.071 20.539 20.539 0 0 0 1.85 5.023v-.039c.332 2.981.639 6.07.9 9.251.128 1.6.24 3.2.32 4.84.04.8.072 1.638.076 2.466 0 .4 0 .827-.024 1.239a11.571 11.571 0 0 1-.152 1.23 8.112 8.112 0 0 1-.859 2.342c-.4.748-.8 1.487-1.2 2.266a21.34 21.34 0 0 0-1.571 4.956 56.832 56.832 0 0 0-.875 10.61c0 4.752.224 9.42.615 13.932v.1h.095l8.752.32h.084l.02-.084a5973.11 5973.11 0 0 0 6.99-27.292l.755-3.057c.132-.508.216-1.011.372-1.491s.332-.955.516-1.419c.375-.927.8-1.826 1.2-2.7l.311-.652a6.217 6.217 0 0 0 .3-.655c.18-.444.36-.879.54-1.315a53.1 53.1 0 0 0 2.761-9.963 86.671 86.671 0 0 0 1.319-14.683c.024-3.445-.116-5.315-.116-5.315v.344c0 .227 0 .575.024 1.023.024.9.04 2.226 0 3.948a88.87 88.87 0 0 1-1.331 14.671 52.955 52.955 0 0 1-2.8 9.927l-.536 1.307c-.088.224-.188.436-.3.651s-.211.436-.315.656c-.4.875-.824 1.774-1.2 2.705-.188.468-.368.944-.524 1.431s-.248 1-.375 1.5c-.252 1.007-.5 2.022-.764 3.057-2.122 8.251-4.483 17.442-7.013 27.278l.1-.076-8.752-.324.1.1c-.4-4.5-.631-9.168-.615-13.912a56.559 56.559 0 0 1 .871-10.566 21.338 21.338 0 0 1 1.555-4.912c.359-.771.8-1.5 1.2-2.262a8.371 8.371 0 0 0 .847-2.4 11.082 11.082 0 0 0 .156-1.258c0-.4.04-.84.024-1.251 0-.832-.036-1.659-.076-2.478-.08-1.639-.2-3.253-.328-4.844q-.4-4.8-.907-9.26v-.023a20.4 20.4 0 0 1-1.859-4.964 30.281 30.281 0 0 1-.8-5.036 19.633 19.633 0 0 1 .472-4.827 26.192 26.192 0 0 1 1.355-4.4l2.287-4.043-.063.04 19.306-1.043-.052-.044c.1 3 .168 5.328.216 6.906.028.8.048 1.383.064 1.791s.04.595.04.595"
                      style="fill:#2e546a"/>
                <path data-name="Path 70752"
                      d="M34.33 97.494s-5.2-.919-4.712 5.767c.3 4 1.479 10.854 2.13 15.23.224 1.515.72 4.224 2.722 5.815l14.347 9.927 4.528-5.415-12.813-12.2-2-12.069z"
                      style="fill:#e6e6e6"/>
                <path data-name="Path 70753"
                      d="M34.941 73.4a6.58 6.58 0 0 1 2.438 5.563c-.08 1.023-.364 2.186.3 2.965s1.946.752 2.577 1.543c.74.935.12 2.326.4 3.489a2.365 2.365 0 0 0 2.514 1.754 9.22 9.22 0 0 1-4.572 2l-1.311-1.634a1.693 1.693 0 0 1-.112 2.078 3.879 3.879 0 0 1-1.886 1.119 11.707 11.707 0 0 1-10.251-1.666"
                      style="fill:#174159"/>
                <path data-name="Path 70754"
                      d="M15.746 82.415c.256-.8.687-1.506.859-2.31.368-1.729-.475-3.681.364-5.238a4.939 4.939 0 0 1 3.077-2.023 7.947 7.947 0 0 0 3.393-1.566c.656-.647 1.031-1.544 1.687-2.19a5.546 5.546 0 0 1 3.628-1.323 7.855 7.855 0 0 1 3.961.644 4.325 4.325 0 0 1 2.438 3.049 12.39 12.39 0 0 0 .231 1.957 13.226 13.226 0 0 0 1.1 1.867 3.469 3.469 0 0 1-.867 4.157L26.353 91.4c-1.947.734-6.663-.152-8.165-1.6s-3.085-5.41-2.442-7.389"
                      style="fill:#174159"/>
                <path data-name="Path 70755"
                      d="M35.373 77.92c-.4-2.718-2.45-5.927-5.147-5.431l-8.329 2.8c-.8.152-.232 1.491-.152 2.318l1.811 18.783s-1.127.8-1.527.648a.117.117 0 0 0-.148.071.12.12 0 0 0 .012.1c1.011 1.458 5.723 7.8 10.6 5.854 1.087-.435-.116-3.86 0-5.127l-.144-3.241c-.108-1.655-.16-2.334-.16-2.318s3.445-.847 3.816-5.455a48.466 48.466 0 0 0-.635-9"
                      style="fill:#ffbf9d"/>
                <path data-name="Path 70756"
                      d="M34.793 82.1a.586.586 0 0 1-.52.631.559.559 0 0 1-.641-.463v-.016a.588.588 0 0 1 .52-.632.56.56 0 0 1 .641.464v.016"
                      style="fill:#174159"/>
                <path data-name="Path 70757"
                      d="M29.118 82.456a.583.583 0 0 1-.516.631.563.563 0 0 1-.642-.471v-.008a.588.588 0 0 1 .52-.632.556.556 0 0 1 .636.461v.019"
                      style="fill:#174159"/>
                <path data-name="Path 70758"
                      d="M35 80.174c-.064.108-.607-.236-1.287-.136s-1.115.564-1.2.48 0-.224.2-.436a1.555 1.555 0 0 1 2-.276c.224.156.324.32.292.368"
                      style="fill:#174159"/>
                <path data-name="Path 70759"
                      d="M28.9 80.681c-.08.1-.611-.288-1.343-.256s-1.251.444-1.335.352.036-.216.264-.4a1.748 1.748 0 0 1 1.059-.4 1.726 1.726 0 0 1 1.079.323c.228.164.312.332.276.38"
                      style="fill:#174159"/>
                <path data-name="Path 70760"
                      d="M31.189 84.985a3.989 3.989 0 0 1 1.007-.264c.156-.028.308-.072.324-.184a.8.8 0 0 0-.144-.467c-.18-.376-.368-.771-.568-1.2a20.279 20.279 0 0 1-1.31-3.113 20.949 20.949 0 0 1 1.558 3c.192.42.376.8.548 1.2a.921.921 0 0 1 .132.623.4.4 0 0 1-.244.256 1.075 1.075 0 0 1-.268.056 4.387 4.387 0 0 1-1.035.1"
                      style="fill:#174159"/>
                <path data-name="Path 70761" d="M32.192 92.383a11.618 11.618 0 0 1-6.218-1.159s1.778 3.077 6.3 2.3z"
                      style="fill:#ff9a6c"/>
                <path data-name="Path 70762"
                      d="M29.274 86.816a1.031 1.031 0 0 1 .32-.4.8.8 0 0 1 .543-.052 1.262 1.262 0 0 1 .712.36.763.763 0 0 1 .179.751c-.072.264-.463.4-.731.456a1.192 1.192 0 0 1-.8-.164.7.7 0 0 1-.4-.519.863.863 0 0 1 .176-.432"
                      style="fill:#ff9a6c"/>
                <path data-name="Path 70763"
                      d="M29.4 85.932c.1 0 .156.667.775 1.107s1.339.308 1.351.4-.148.144-.455.175a1.691 1.691 0 0 1-1.127-.3 1.466 1.466 0 0 1-.608-.931c-.04-.276.016-.452.064-.452"
                      style="fill:#174159"/>
                <path data-name="Path 70764"
                      d="M28.843 78.223c-.052.172-.683.14-1.415.288s-1.311.4-1.418.244c-.048-.068.039-.236.267-.42a2.485 2.485 0 0 1 2.158-.4c.28.08.428.2.408.288"
                      style="fill:#174159"/>
                <path data-name="Path 70765"
                      d="M34.613 77.884c-.116.152-.619.044-1.2.084s-1.091.18-1.219.04c-.056-.068 0-.22.22-.372a1.866 1.866 0 0 1 .971-.307 1.814 1.814 0 0 1 .991.211c.208.12.288.264.236.344"
                      style="fill:#174159"/>
                <path data-name="Path 70766"
                      d="M20.055 75.941a3.634 3.634 0 0 1 1.894-1.255 41.951 41.951 0 0 1 9.651-2.458 1.716 1.716 0 0 1-.588 2.09 7.61 7.61 0 0 1-2.158.964 2.963 2.963 0 0 0-1.81 1.438c-.308.732-.048 1.695-.336 2.486-.492 1.367-2.4 1.806-2.873 3.169-.368 1.035.231 2.134.4 3.221a3.915 3.915 0 0 1-3.844 4.456q-.336-5.87-.676-11.733a3.759 3.759 0 0 1 .344-2.378"
                      style="fill:#174159"/>
                <path data-name="Path 70767"
                      d="M12.174 85.824c.619-.556 1.4-1.034 1.639-1.825.359-1.155-.568-2.511.032-3.561.543-.959 2.146-.907 2.653-1.887.4-.768-.06-1.442.088-2.114a1.833 1.833 0 0 1 1.786-1.179L23.7 83c.495 2.6.995 4 .439 5.5a12.136 12.136 0 0 0-.827 2.525 2.535 2.535 0 0 0 .823 2.4c-3.2.253-6.186-1.419-8.952-3.037l-2.913-1.71a2.089 2.089 0 0 1-.8-.672c-.436-.71.084-1.626.7-2.178"
                      style="fill:#174159"/>
                <path data-name="Path 70768"
                      d="M15.119 89.6a1.5 1.5 0 0 0 .344.068 3 3 0 0 0 .995-.072 3.078 3.078 0 0 0 1.387-.747 3.029 3.029 0 0 0 .911-1.867 3.1 3.1 0 0 0-.1-1.227 5.007 5.007 0 0 0-.592-1.2 4.626 4.626 0 0 1-.611-1.231 1.572 1.572 0 0 1 .172-1.355c.288-.4.827-.484 1.331-.684a1.3 1.3 0 0 0 .9-1.342 9.089 9.089 0 0 0-.364-1.663 1.767 1.767 0 0 1 0-.8 1.151 1.151 0 0 1 .46-.652 3.225 3.225 0 0 1 1.6-.431 3.432 3.432 0 0 0 1.647-.484 3.08 3.08 0 0 0 1.139-1.227 5.069 5.069 0 0 0 .4-1.53 7.372 7.372 0 0 1 .312-1.439 3.251 3.251 0 0 1 .751-1.131 3.7 3.7 0 0 1 2.21-1 3.648 3.648 0 0 1 2 .4 4.392 4.392 0 0 1 1.231.935 5.8 5.8 0 0 1 .759 1.091.217.217 0 0 0-.028-.084 2.155 2.155 0 0 0-.112-.232 4.176 4.176 0 0 0-.555-.807 4.47 4.47 0 0 0-1.239-.979 3.717 3.717 0 0 0-2.035-.452 3.8 3.8 0 0 0-2.332 1.02 3.382 3.382 0 0 0-.8 1.2 7.444 7.444 0 0 0-.327 1.467 4.963 4.963 0 0 1-.4 1.478 2.919 2.919 0 0 1-1.063 1.147 3.29 3.29 0 0 1-1.567.452 3.36 3.36 0 0 0-1.71.464 1.3 1.3 0 0 0-.528.743 1.951 1.951 0 0 0 0 .9 9.188 9.188 0 0 1 .36 1.631 1.238 1.238 0 0 1-.184.731 1.327 1.327 0 0 1-.6.444c-.236.1-.492.167-.74.271a1.565 1.565 0 0 0-.659.476 1.772 1.772 0 0 0-.192 1.5 4.886 4.886 0 0 0 .639 1.27 4.786 4.786 0 0 1 .58 1.143 3.03 3.03 0 0 1 .112 1.167 2.945 2.945 0 0 1-.855 1.807 3.015 3.015 0 0 1-1.335.751 3.331 3.331 0 0 1-1.311.076"
                      style="fill:#e6e6e6"/>
                <path data-name="Path 70769"
                      d="M10.859 84.094a.678.678 0 0 0-.1.26 1.15 1.15 0 0 0 .136.8 1.251 1.251 0 0 0 .4.428 1.279 1.279 0 0 0 .683.184 1.6 1.6 0 0 0 1.4-.892 2.126 2.126 0 0 0 .222-.974 2.988 2.988 0 0 0-.224-1.055 6.576 6.576 0 0 1-.724-2.174 1.485 1.485 0 0 1 .372-1.1 1.6 1.6 0 0 1 1.159-.36 3.963 3.963 0 0 0 1.383-.143 1.2 1.2 0 0 0 .567-.48 1.73 1.73 0 0 0 .236-.7 5.526 5.526 0 0 0-.116-1.423 3.042 3.042 0 0 1 .076-1.315 3.307 3.307 0 0 1 1.483-1.95 4.7 4.7 0 0 1 2.226-.512 6.458 6.458 0 0 0 2.022-.319 4.242 4.242 0 0 0 1.431-.88 4.189 4.189 0 0 0 .8-1.007 2.978 2.978 0 0 0 .38-1.011 6.078 6.078 0 0 1-.444.975 4.3 4.3 0 0 1-2.2 1.823 6.563 6.563 0 0 1-2 .287 4.8 4.8 0 0 0-2.294.512 3.47 3.47 0 0 0-1.575 2.018 3.25 3.25 0 0 0-.084 1.387 5.716 5.716 0 0 1 .116 1.375 1.2 1.2 0 0 1-.691 1.035 3.766 3.766 0 0 1-1.315.132 1.771 1.771 0 0 0-1.283.4 1.633 1.633 0 0 0-.4 1.227 3.153 3.153 0 0 0 .291 1.2c.156.36.328.7.46 1.031a2.885 2.885 0 0 1 .224 1 2.022 2.022 0 0 1-.2.911 1.485 1.485 0 0 1-1.276.849 1.2 1.2 0 0 1-.635-.156 1.1 1.1 0 0 1-.4-.4 1.128 1.128 0 0 1-.164-.747c.02-.144.072-.232.06-.236"
                      style="fill:#174159"/>
                <path data-name="Path 70770"
                      d="M44.521 86a1.259 1.259 0 0 1 0 .835 1.092 1.092 0 0 1-.663.676 1.155 1.155 0 0 1-1.171-.32 1.061 1.061 0 0 1-.276-.671 2.222 2.222 0 0 1 .124-.8A4.727 4.727 0 0 0 43 83.886a2.585 2.585 0 0 0-.975-1.846 2.945 2.945 0 0 0-.995-.524 4.537 4.537 0 0 0-1.135-.164 5.8 5.8 0 0 1-1.107-.116 1.471 1.471 0 0 1-.859-.531 1.8 1.8 0 0 1-.308-.947 3.656 3.656 0 0 1 .08-.984 7.4 7.4 0 0 0 .288-1.87 2.824 2.824 0 0 0-.572-1.55 3.618 3.618 0 0 0-1.039-.88 7.319 7.319 0 0 1-.835-.575 2.09 2.09 0 0 1-.519-.672v.056a.784.784 0 0 0 .063.156 1.748 1.748 0 0 0 .4.512 6.487 6.487 0 0 0 .827.611 3.578 3.578 0 0 1 .991.871 2.681 2.681 0 0 1 .52 1.479 7.447 7.447 0 0 1-.3 1.827 3.836 3.836 0 0 0-.092 1.031 2 2 0 0 0 .344 1.043 1.645 1.645 0 0 0 .959.6 6.054 6.054 0 0 0 1.139.124 4.449 4.449 0 0 1 1.095.152 2.91 2.91 0 0 1 .935.491 2.427 2.427 0 0 1 .916 1.715 4.712 4.712 0 0 1-.44 1.778 2.411 2.411 0 0 0-.12.864 1.2 1.2 0 0 0 .324.747 1.267 1.267 0 0 0 1.3.332 1.169 1.169 0 0 0 .695-.752 1.15 1.15 0 0 0 .032-.647.677.677 0 0 0-.092-.22"
                      style="fill:#174159"/>
                <path data-name="Path 70771"
                      d="M40.7 117.3v-4.42a12.309 12.309 0 0 0-.9-7.689 41.182 41.182 0 0 0-2.774-4.216l-4.4-5.711c-2.422 1.762-6.214.487-9.467-.7a23.087 23.087 0 0 0-4.708 3.449c-1.571 1.759 3.8 23.759 3.8 23.759-2.434 4.868-5.575 9.192-6.051 13.628l25.417.979-1.079-11.654z"
                      style="fill:#e6e6e6"/>
                <path data-name="Path 70772"
                      d="M40.348 124.857a2.255 2.255 0 0 1-.02-.5V123l.072-4.469c.028-1.722.08-3.324.136-4.467.028-.573.056-1.035.08-1.355a2.2 2.2 0 0 1 .064-.492 2.559 2.559 0 0 1 0 .5v1.356c-.02 1.2-.048 2.744-.076 4.468s-.076 3.325-.132 4.467a38.644 38.644 0 0 1-.084 1.355 2.1 2.1 0 0 1-.04.5"
                      style="fill:#174159"/>
                <path data-name="Path 70773"
                      d="M51.958 128.878a9.989 9.989 0 0 1 4 1.1c1.519.959 4 2.454 5.016 4.3.468.851-.863 1.031-1.523.54a10.736 10.736 0 0 0-2.162-1.539l-.5-.116a33.338 33.338 0 0 0 1.522 3.021c.516.8.963 2.127-.587 2.186 0 0-1.043 1.359-2.1.352 0 0-.824 1.235-2.15-.475 0 0-.776.979-1.1.6a4.787 4.787 0 0 1-1.687-2.19 44.462 44.462 0 0 0-1.6-4.192z"
                      style="fill:#ffbf9d"/>
                <path data-name="Path 70774"
                      d="M107.432 94.533c.276 0 11.622-1.2 11.622-1.2a47.6 47.6 0 0 0 .911-5.811c-.052-1.2-.859-9.132-.859-9.132l4.248-2s5.679 19.151 4.44 20.742a12.43 12.43 0 0 1-3.769 3.025c-.2.008-10.994 4.8-18.5 2.306s1.91-7.933 1.91-7.933"
                      style="fill:#ffbf9d"/>
                <path data-name="Path 70775"
                      d="M97.489 104.871c1.671 1.659 4.548 3.037 9.352 1.838 9.495-2.374 16.613-4.4 19.442-5.914s1.727-8.305 1.966-8.613c.716-.927-.071-2.917-1.091-3.229-2.9-.879-7.96-.531-8.216-.268a2.8 2.8 0 0 0-.132 3.469L106.289 93.8a20.975 20.975 0 0 0-4.6.292"
                      style="fill:#e6e6e6"/>
                <path data-name="Path 70776"
                      d="m101.689 94.089.3-.064c.2-.036.5-.088.887-.136a20.646 20.646 0 0 1 3.417-.144l12.517-1.678-.06.14a3.354 3.354 0 0 1-.576-2.058 2.4 2.4 0 0 1 .36-1.064 3.376 3.376 0 0 1 .344-.455.643.643 0 0 1 .163-.088l.144-.036c.1-.024.188-.032.28-.052a24.808 24.808 0 0 1 4.672-.1 16.049 16.049 0 0 1 2.43.336c.2.044.4.1.607.156a1.5 1.5 0 0 1 .572.335 2.806 2.806 0 0 1 .707 1.087 2.74 2.74 0 0 1 .164 1.3 1.615 1.615 0 0 1-.252.64c-.036.04-.032.148-.036.251v.32c.028.859.068 1.735.044 2.614a11.145 11.145 0 0 1-.6 3.669 3.643 3.643 0 0 1-1.039 1.53 3.6 3.6 0 0 1-.8.472c-.263.14-.543.248-.8.375-1.1.468-2.194.852-3.277 1.2s-2.146.684-3.2.991c-4.18 1.2-7.993 2.171-11.166 2.966a21.5 21.5 0 0 1-2.3.475 12.269 12.269 0 0 1-2.1.112 8.739 8.739 0 0 1-3.273-.711 7.538 7.538 0 0 1-1.8-1.119 4.757 4.757 0 0 1-.535-.508s.184.176.563.476a7.855 7.855 0 0 0 1.807 1.079 8.815 8.815 0 0 0 3.241.667 12.1 12.1 0 0 0 2.074-.128 21.762 21.762 0 0 0 2.286-.487c3.2-.8 6.978-1.782 11.146-3.005 1.043-.308 2.106-.636 3.2-.995s2.174-.74 3.257-1.2c.264-.124.54-.232.8-.372a3.523 3.523 0 0 0 .748-.448 3.406 3.406 0 0 0 .979-1.442 11.011 11.011 0 0 0 .579-3.617c.024-.875 0-1.743-.044-2.606v-.5a.512.512 0 0 1 0-.1.582.582 0 0 1 .032-.072l.02-.032a1.312 1.312 0 0 0 .216-.548 2.5 2.5 0 0 0-.156-1.2 2.6 2.6 0 0 0-.647-1.007 1.317 1.317 0 0 0-.5-.291c-.2-.052-.4-.108-.6-.156a15.9 15.9 0 0 0-2.4-.332 24.3 24.3 0 0 0-4.624.088 1.05 1.05 0 0 0-.272.048l-.128.028a.542.542 0 0 0-.08.04 3.013 3.013 0 0 0-.323.423 2.146 2.146 0 0 0-.336.98 3.192 3.192 0 0 0 .536 1.938l.08.124h-.14l-12.525 1.6a21.7 21.7 0 0 0-3.4.1c-.4.04-.691.084-.891.112a1.116 1.116 0 0 0-.3.076"
                      style="fill:#174159"/>
                <path data-name="Path 70777"
                      d="m67.789 107.105-5.1-9.163 96.462-53.69a4.8 4.8 0 0 1 6.523 1.858l.437.786a4.8 4.8 0 0 1-1.858 6.522l-96.462 53.69z"
                      style="fill:#fff"/>
                <path data-name="Path 70778"
                      d="m148.677 58.646-11.811-21.221a.894.894 0 0 1 .347-1.217l5.419-3.017a.9.9 0 0 1 1.218.347l11.811 21.221-6.984 3.887"
                      style="fill:#fff"/>
                <path data-name="Path 70779"
                      d="m134.05 64.23-8.608-15.466a1.3 1.3 0 0 1 .5-1.761l4.722-2.628a1.3 1.3 0 0 1 1.761.5l8.608 15.466a1.3 1.3 0 0 1-.5 1.761l-4.721 2.628a1.3 1.3 0 0 1-1.761-.5"
                      style="fill:#fff"/>
                <path data-name="Rectangle 17606" transform="rotate(-29.098 158.728 -232.383)" style="fill:#fff"
                      d="M0 0h12.413v10.958H0z"/>
                <path data-name="Path 70780"
                      d="M157.739 45.057c.028.048-18.9 10.638-42.274 23.651S73.1 92.231 73.1 92.179 92 81.54 115.381 68.524s42.33-23.519 42.358-23.467"
                      style="fill:#174159"/>
                <path data-name="Path 70781"
                      d="M28.722 124.806c7.114 12.788 22.113 17.983 33.5 11.649s14.867-21.84 7.753-34.613-22.108-17.984-33.5-11.649-14.862 21.84-7.753 34.613m35.085-19.527c4.984 8.952 2.55 19.81-5.435 24.25s-18.492.8-23.475-8.16-2.55-19.811 5.431-24.255 18.5-.787 23.479 8.165"
                      style="fill:#fff"/>
                <path data-name="Path 70782"
                      d="m84.19 98.25-5.263-9.456a2.606 2.606 0 0 1 1.009-3.544l.426-.237a2.606 2.606 0 0 1 3.544 1.009l5.264 9.456a2.607 2.607 0 0 1-1.01 3.544l-.426.238a2.607 2.607 0 0 1-3.544-1.01"
                      style="fill:#fff"/>
                <path data-name="Path 70783"
                      d="m94.3 92.623-5.263-9.456a2.606 2.606 0 0 1 1.009-3.544l.426-.237a2.606 2.606 0 0 1 3.544 1.009l5.264 9.456a2.607 2.607 0 0 1-1.01 3.544l-.426.238a2.607 2.607 0 0 1-3.544-1.01"
                      style="fill:#fff"/>
                <path data-name="Path 70784"
                      d="M83.794 85.876c.051-.028 1.27 2.118 2.729 4.8s2.6 4.859 2.545 4.887-1.27-2.114-2.728-4.795-2.6-4.888-2.546-4.888"
                      style="fill:#174159"/>
                <path data-name="Path 70785"
                      d="M79.154 89.174c.052-.028 1.243 2.022 2.666 4.572s2.529 4.648 2.481 4.676-1.243-2.022-2.649-4.552-2.546-4.668-2.5-4.7"
                      style="fill:#174159"/>
                <path data-name="Path 70786"
                      d="M93.964 80.309c.052-.028 1.3 2.106 2.778 4.768s2.641 4.847 2.589 4.875-1.291-2.11-2.773-4.771-2.642-4.844-2.594-4.872"
                      style="fill:#174159"/>
                <path data-name="Path 70787"
                      d="M89.085 83.255c.048-.028 1.267 2.094 2.714 4.74s2.585 4.795 2.533 4.839-1.263-2.094-2.713-4.734-2.586-4.812-2.534-4.84"
                      style="fill:#174159"/>
                <path data-name="Path 70788"
                      d="M118.071 68.84a1.886 1.886 0 0 0 .8-3.669 1.966 1.966 0 0 0-1.706-3.317 2.355 2.355 0 0 0-3.541-1.934 2.645 2.645 0 0 0-3.257-.072 1.882 1.882 0 0 0-1.667 3.2"
                      style="fill:#174159"/>
                <path data-name="Path 70789"
                      d="M109.962 61.71h.4a8.018 8.018 0 0 1 7.985 7.381c.3 3.873.579 8.153.547 10.231-.076 4.316-4.368 4.956-4.368 4.956l.348 5.171-10.443-.34-.867-18.743c-.368-4.472 1.922-8.408 6.4-8.656"
                      style="fill:#ffbf9d"/>
                <path data-name="Path 70790"
                      d="M114.562 84.278a10.436 10.436 0 0 1-5.631-1.667 5.429 5.429 0 0 0 5.675 2.882z"
                      style="fill:#ff9a6c"/>
                <path data-name="Path 70791"
                      d="M117.627 72.622a.61.61 0 0 1-.6.615.592.592 0 0 1-.632-.549v-.006a.62.62 0 0 1 .6-.62.591.591 0 0 1 .63.55v.01"
                      style="fill:#174159"/>
                <path data-name="Path 70792"
                      d="M117.415 71.206c-.076.08-.544-.264-1.2-.264s-1.147.328-1.219.248.044-.18.256-.336a1.679 1.679 0 0 1 .975-.295 1.591 1.591 0 0 1 .955.311c.2.156.268.3.232.336"
                      style="fill:#174159"/>
                <path data-name="Path 70793"
                      d="M111.211 72.784a.615.615 0 0 1-.6.627.591.591 0 0 1-.631-.549v-.006a.616.616 0 0 1 .6-.62.592.592 0 0 1 .635.545"
                      style="fill:#174159"/>
                <path data-name="Path 70794"
                      d="M110.917 71.309c-.076.08-.544-.263-1.2-.263s-1.147.328-1.219.248.044-.181.256-.336a1.672 1.672 0 0 1 .975-.295 1.6 1.6 0 0 1 .955.31c.2.157.268.3.232.336"
                      style="fill:#174159"/>
                <path data-name="Path 70795"
                      d="M113.3 76.221a4.274 4.274 0 0 1 1.075-.192c.168 0 .328-.048.36-.164a.861.861 0 0 0-.112-.5l-.5-1.287a20.61 20.61 0 0 1-1.111-3.365 20.576 20.576 0 0 1 1.379 3.265c.164.452.324.883.476 1.3a1 1 0 0 1 .084.663.424.424 0 0 1-.28.244.975.975 0 0 1-.284.04 4.425 4.425 0 0 1-1.091 0"
                      style="fill:#174159"/>
                <path data-name="Path 70796"
                      d="M111.5 68.768c-.088.168-.651 0-1.351-.04s-1.283.092-1.347-.084c-.028-.084.1-.232.348-.368a2.118 2.118 0 0 1 1.047-.215 2.024 2.024 0 0 1 1.011.311c.228.156.332.32.292.4"
                      style="fill:#174159"/>
                <path data-name="Path 70797"
                      d="M117.455 68.484c-.14.148-.687 0-1.343 0s-1.2.1-1.339-.06c-.056-.076.032-.228.276-.368a2.143 2.143 0 0 1 1.091-.243 2.1 2.1 0 0 1 1.067.307c.232.136.308.288.248.364"
                      style="fill:#174159"/>
                <path data-name="Path 70798"
                      d="M117.939 67.133s-1.127-2.7-2.426-3.329c-1.57-.767-2.25.955-3.748.532s-3-1.155-4.532 0c-1.679 1.262-.9 2.154-1.008 4.064-.439 7.737-1.862 9.919-2.249 6.274-.044-.4-1.151-.719-1.311-2.4a18.9 18.9 0 0 1 .211-6.394 6.02 6.02 0 0 1 2.5-3.2c2.118-1.567 5.02-1.6 6.99-1.387s5.759 2.462 5.571 5.835"
                      style="fill:#174159"/>
                <path data-name="Path 70799"
                      d="M104.247 74.555a1.167 1.167 0 0 0-1.2-1.134h-.056c-.8.076-1.7.528-1.65 2.186a2.209 2.209 0 0 0 3.025 2.162c0-.088-.072-1.986-.12-3.217"
                      style="fill:#ffbf9d"/>
                <path data-name="Path 70800"
                      d="M103.692 76.685a.651.651 0 0 1-.136.08.515.515 0 0 1-.38.02 1.264 1.264 0 0 1-.619-1.123 1.694 1.694 0 0 1 .12-.735.585.585 0 0 1 .376-.4.258.258 0 0 1 .307.132c.04.08.024.14.04.144s.06-.052.032-.172a.294.294 0 0 0-.12-.18.376.376 0 0 0-.283-.068.719.719 0 0 0-.524.472 1.727 1.727 0 0 0-.156.823 1.326 1.326 0 0 0 .8 1.251.542.542 0 0 0 .464-.092c.08-.08.092-.152.08-.152"
                      style="fill:#ff9a6c"/>
                <path data-name="Path 70801"
                      d="M104.323 68.856a2.8 2.8 0 0 0 1.243.579.958.958 0 0 0 1.067-.671c.036-.2 0-.444.12-.6s.459-.128.7-.1a2.341 2.341 0 0 0 2.078-1.683.763.763 0 0 0 1.023.216 2.735 2.735 0 0 0 .712-.627 1.217 1.217 0 0 1 1.011-.5 2.8 2.8 0 0 0 .639.14c.4-.032.576-.484.636-.867s.108-.828.435-1.035a1.544 1.544 0 0 1 1.051-.028c.356.056.8-.028.908-.376a.708.708 0 0 0-.132-.532 1.9 1.9 0 0 0-2.246-.727 2.578 2.578 0 0 0-4.744-.515 2.617 2.617 0 0 0-4.192.943 1.9 1.9 0 0 0-2.15 2.753 1.8 1.8 0 0 0-1 1.435 1.045 1.045 0 0 0 1.166 1.055 1.051 1.051 0 0 0 1.815 1.055"
                      style="fill:#174159"/>
                <path data-name="Path 70802"
                      d="M113.787 62.909v.056a.451.451 0 0 1-.02.156 1.9 1.9 0 0 1-.216.567 2.132 2.132 0 0 1-.651.692 1.965 1.965 0 0 1-1.2.339l.048-.064a1.054 1.054 0 0 1-.06.8 3.024 3.024 0 0 1-.5.719 2.218 2.218 0 0 1-.331.34 1.1 1.1 0 0 1-1.411-.172l.108-.032a2.205 2.205 0 0 1-.939 1.523 1.6 1.6 0 0 1-.968.315 2.97 2.97 0 0 1-.951-.212l.08-.035a2.338 2.338 0 0 1-.7.907 1.229 1.229 0 0 1-1.023.275 1.62 1.62 0 0 1-1.247-1.27l.068.032a1.546 1.546 0 0 1-1.011.143 1.657 1.657 0 0 1-.7-.315 1.475 1.475 0 0 1-.327-.36.5.5 0 0 1-.072-.156 1.718 1.718 0 0 0 .427.476 1.618 1.618 0 0 0 .688.284 1.435 1.435 0 0 0 .955-.152l.056-.032v.067a1.52 1.52 0 0 0 1.175 1.175 1.126 1.126 0 0 0 .931-.26 2.2 2.2 0 0 0 .655-.859l.024-.052h.056a2.832 2.832 0 0 0 .908.2 1.479 1.479 0 0 0 .895-.291 2.091 2.091 0 0 0 .887-1.435v-.14l.092.108a.952.952 0 0 0 .835.3.935.935 0 0 0 .4-.152 1.937 1.937 0 0 0 .311-.316 2.92 2.92 0 0 0 .5-.687.957.957 0 0 0 .064-.736l-.024-.072h.076a1.883 1.883 0 0 0 1.155-.307 2.091 2.091 0 0 0 .647-.66 2.195 2.195 0 0 0 .32-.707"
                      style="fill:#e6e6e6"/>
                <path data-name="Path 70803"
                      d="M113.291 78.415c-.024-.108-.739.068-1.4-.42s-.771-1.27-.871-1.251-.1.208-.028.532a1.842 1.842 0 0 0 .691 1.055 1.6 1.6 0 0 0 1.159.3c.308-.048.468-.172.452-.22"
                      style="fill:#174159"/>
                <path data-name="Path 70804"
                      d="m135.455 190.231 2.837 9.667s10.791.36 11.482 2.1l-18.567 6.171-5.044-14.887z"
                      style="fill:#2e546a"/>
                <path data-name="Path 70805"
                      d="M132.29 201.005a.8.8 0 0 0-.236 1.039.768.768 0 0 0 1.027.244.844.844 0 0 0 .244-1.1.8.8 0 0 0-1.1-.136"
                      style="fill:#174159"/>
                <path data-name="Path 70806" d="M148.727 201.3s.947.084 1.047.7l-18.567 6.171-.448-1.523 17.952-5.355"
                      style="fill:#174159"/>
                <path data-name="Path 70807"
                      d="M138.56 199.7c.028.093-.4.284-.759.723s-.46.9-.556.893-.132-.577.3-1.1 1.007-.6 1.015-.517"
                      style="fill:#174159"/>
                <path data-name="Path 70808"
                      d="M140.775 199.858c.051.084-.289.368-.472.851s-.132.923-.224.947-.32-.467-.084-1.067.751-.815.78-.731"
                      style="fill:#174159"/>
                <path data-name="Path 70809"
                      d="M142.657 201.821c-.076.048-.352-.364-.284-.935s.424-.915.488-.851-.112.4-.16.887.044.851-.044.9"
                      style="fill:#174159"/>
                <path data-name="Path 70810"
                      d="M137.669 197.572c0 .1-.468.108-.967.312s-.847.5-.919.439.2-.511.8-.747 1.111-.092 1.087 0"
                      style="fill:#174159"/>
                <path data-name="Path 70811"
                      d="m92.158 190.315-4.04 9.232s8.028 7.193 7.449 8.984l-18.184-7.194 5.7-14.643z"
                      style="fill:#2e546a"/>
                <path data-name="Path 70812"
                      d="M82.806 196.537a.8.8 0 0 0-.847.643.772.772 0 0 0 .631.848.847.847 0 0 0 .9-.688c0-.4-.363-.855-.755-.8"
                      style="fill:#174159"/>
                <path data-name="Path 70813" d="M95.211 207.324s.671.675.356 1.2l-18.184-7.194.635-1.45 17.182 7.432"
                      style="fill:#174159"/>
                <path data-name="Path 70814"
                      d="M88.445 199.571c-.036.088-.5-.048-1.047.064s-.931.4-1 .328.268-.528.935-.652 1.167.184 1.111.26"
                      style="fill:#174159"/>
                <path data-name="Path 70815"
                      d="M90.044 201.113c0 .092-.456.092-.907.348s-.692.619-.8.583.055-.563.619-.871 1.119-.144 1.087-.06"
                      style="fill:#174159"/>
                <path data-name="Path 70816"
                      d="M90.228 203.823c-.088 0-.036-.5.4-.9s.911-.428.919-.34-.352.248-.692.58-.535.687-.627.659"
                      style="fill:#174159"/>
                <path data-name="Path 70817"
                      d="M89.137 197.377c-.068.064-.428-.216-.943-.4s-.967-.159-.983-.251.483-.264 1.087-.064.911.651.839.715"
                      style="fill:#fff"/>
                <path data-name="Path 70818"
                      d="m98.964 139.6-6.37 25.841S81.1 184.784 79.158 194.463l10.51 4.132s7.645-18.643 9.887-22.064a27.589 27.589 0 0 1 3.461-4.264 6.652 6.652 0 0 0 1.747-3.022l4.823-18.435z"
                      style="fill:#174159"/>
                <path data-name="Path 70819"
                      d="M96.25 135.468a13.689 13.689 0 0 0 7.549 9.991l14.036 22.86a93.477 93.477 0 0 0 3.2 13.7c2.1 6.263 6.338 18.332 6.338 18.332l11.546-4.316-7.358-25.154-1.2-8.724-11.453-29.174-9.839-5.9z"
                      style="fill:#174159"/>
                <path data-name="Path 70820"
                      d="m96.25 135.468.212-.144.635-.423 2.494-1.647 9.456-6.214.032-.02.031.02 9.848 5.886v.024l11.477 29.15v.02c.38 2.758.8 5.711 1.2 8.724 2 6.794 4.117 14.064 6.307 21.553l1.055 3.6.028.092-.092.032-11.546 4.316-.1.036-.032-.1c-2-5.8-3.932-11.382-5.759-16.677-.459-1.323-.911-2.634-1.286-3.945s-.716-2.613-1.024-3.9a98.863 98.863 0 0 1-1.478-7.525v.032l-13.956-22.868.024.02a13.024 13.024 0 0 1-4.4-3.349 13.867 13.867 0 0 1-2.158-3.461 14.235 14.235 0 0 1-.8-2.4c-.068-.272-.108-.483-.132-.627s-.028-.216-.028-.216a.8.8 0 0 0 .044.212c.044.14.068.351.144.627a14.659 14.659 0 0 0 .823 2.366 13.93 13.93 0 0 0 2.166 3.425 13.051 13.051 0 0 0 4.4 3.309l14.065 22.839v.02c.4 2.429.879 4.939 1.486 7.509.308 1.283.644 2.582 1.023 3.888s.828 2.61 1.287 3.933c1.835 5.295 3.765 10.878 5.771 16.673l-.132-.06 11.546-4.316-.064.124q-.519-1.786-1.055-3.6l-6.3-21.557c-.4-3.013-.823-5.966-1.2-8.724v.024l-11.432-29.171.032.036-9.831-5.911h.059l-9.455 6.187-2.518 1.623-.647.419z"
                      style="fill:#2e546a"/>
                <path data-name="Path 70821"
                      d="M102.433 86.084a22.28 22.28 0 0 0-5 5.483c-1.958 3.465-2.17 8.6-2.23 16.577-.059 7.378 1.044 9.428.62 12.209-.835 5.431-1.455 23.659-1.455 23.659s10.791-4.144 12.885-5.995l2.106-1.83 13.5 4.464-2.726-16.593-1.87-20.681-2.4-10.971-.4-4.3-11.6-4.66z"
                      style="fill:#e6e6e6"/>
                <path data-name="Path 70822"
                      d="M115.034 87.875c.14.028-.333.975-1.164 2.366l-.036.056-.063-.024a252.973 252.973 0 0 0-4.417-1.647c-1.91-.695-3.637-1.342-4.872-1.846a40.737 40.737 0 0 1-1.454-.619 3.345 3.345 0 0 1-.52-.256 2.849 2.849 0 0 1 .553.184l1.474.555 4.891 1.787c1.694.619 3.241 1.2 4.4 1.694l-.1.032a11.579 11.579 0 0 0 1.308-2.282"
                      style="fill:#174159"/>
                <path data-name="Path 70823"
                      d="M128.989 79.258s-.855-1.331-1.663-2.558-2.03-1.83-2.226-2.469-1.27-3.489-1.442-4.2a9.085 9.085 0 0 1-.208-2.086s.883-.376 1.307.887A32.088 32.088 0 0 0 126 72.3c.176.128.4-.06.4-.06a30.354 30.354 0 0 1-.939-2.945c-.04-.468.124-3.569.124-3.569a.936.936 0 0 1 1.063.6 8.742 8.742 0 0 1 .436 2.8l.635 2.23-.224-2.206.32-4.056a1.527 1.527 0 0 1 1.279 1.2c.268 1.095-.088 2.621.092 2.945a14.093 14.093 0 0 1 .375 2.282s.22-4.756.728-4.892.923.368.851 1.327a14.955 14.955 0 0 0 .172 3.885c.264.895 2.969 4.4 2.749 5.93a25.958 25.958 0 0 0-.251 2.8h-4.636z"
                      style="fill:#ffbf9d"/>
                <path data-name="Path 70824"
                      d="M112.728 91.236c.26.1 11.334 2.841 11.334 2.841a46.873 46.873 0 0 0 2.837-5.155c.364-1.159 2.31-8.88 2.31-8.88l4.68-.44s-1.2 19.939-2.893 21.014a12.392 12.392 0 0 1-4.572 1.558c-.176-.06-11.97.76-18.184-4.136s4.488-6.8 4.488-6.8"
                      style="fill:#ffbf9d"/>
                <g data-name="Group 38961" style="opacity:.3">
                    <g data-name="Group 38960">
                        <g data-name="Group 38959" style="clip-path:url(#hj78f2167c)">
                            <path data-name="Path 70825"
                                  d="M104.791 101.79a8.465 8.465 0 0 0 4.528 2.662c2.937.647 9.192 1.794 9.192 1.794l-.3-3.069-13.588-1.455"/>
                        </g>
                    </g>
                </g>
                <path data-name="Path 70826"
                      d="M99.859 97.57c1.007 2.126 3.245 4.4 8.165 4.912 9.739 1.007 17.112 1.542 20.3 1.063s4.452-7.222 4.795-7.43c.991-.623.927-2.765.072-3.4a20.451 20.451 0 0 0-7.629-3.049 2.8 2.8 0 0 0-1.307 3.217l-12.355-2.73a20.711 20.711 0 0 0-4.424-1.287"
                      style="fill:#e6e6e6"/>
                <path data-name="Path 70827"
                      d="M107.48 88.866a1.742 1.742 0 0 1 .3.04c.2.04.5.088.883.172a20.48 20.48 0 0 1 3.261 1.031l12.341 2.685-.1.112a3.322 3.322 0 0 1 .16-2.13 2.366 2.366 0 0 1 .695-.879 3.327 3.327 0 0 1 .484-.312.727.727 0 0 1 .18-.028h.148a1.69 1.69 0 0 1 .283.048 24.732 24.732 0 0 1 4.424 1.5 16.563 16.563 0 0 1 2.17 1.143c.172.112.344.236.516.356a1.484 1.484 0 0 1 .424.507 2.839 2.839 0 0 1 .295 1.263 2.714 2.714 0 0 1-.287 1.279 1.525 1.525 0 0 1-.456.515c-.048.024-.08.128-.12.224l-.1.3c-.264.8-.527 1.654-.847 2.478a11.251 11.251 0 0 1-1.814 3.261 3.2 3.2 0 0 1-2.4 1.255c-.3.044-.6.052-.9.076-1.2.072-2.349.056-3.488.024s-2.254-.092-3.337-.16c-4.345-.28-8.241-.676-11.51-1.015a21.184 21.184 0 0 1-2.326-.336 12.44 12.44 0 0 1-2-.607 8.815 8.815 0 0 1-2.834-1.783 7.578 7.578 0 0 1-1.311-1.666 4.788 4.788 0 0 1-.331-.66s.112.228.367.64a7.914 7.914 0 0 0 1.331 1.626 8.728 8.728 0 0 0 2.822 1.735 12.747 12.747 0 0 0 2 .587 21.77 21.77 0 0 0 2.318.316c3.269.324 7.165.7 11.5.975 1.087.064 2.2.12 3.333.148s2.3.044 3.472-.024c.292-.028.592-.036.884-.08a3.2 3.2 0 0 0 .855-.164 3.426 3.426 0 0 0 1.415-1.023 11.015 11.015 0 0 0 1.774-3.2c.32-.8.58-1.643.843-2.466l.112-.312a.5.5 0 0 1 .064-.156.588.588 0 0 1 .052-.087.284.284 0 0 1 .052-.052l.028-.024a1.3 1.3 0 0 0 .4-.444 2.491 2.491 0 0 0 .263-1.2 2.639 2.639 0 0 0-.267-1.167 1.31 1.31 0 0 0-.364-.439c-.172-.116-.336-.24-.508-.348a15.862 15.862 0 0 0-2.142-1.131 24.475 24.475 0 0 0-4.376-1.5c-.092 0-.184-.04-.271-.048h-.22a3.075 3.075 0 0 0-.448.292 2.16 2.16 0 0 0-.651.8 3.192 3.192 0 0 0-.156 2l.036.14-.14-.032-12.321-2.757a21.74 21.74 0 0 0-3.229-1.071c-.4-.092-.676-.156-.875-.2a1.81 1.81 0 0 0-.36-.036"
                      style="fill:#174159"/>
                <path data-name="Path 70828"
                      d="M128.322 96.735a2.6 2.6 0 0 1-.8-.348 7.893 7.893 0 0 1-1.679-1.255 8.384 8.384 0 0 1-1.311-1.638 2.917 2.917 0 0 1-.379-.8 17.8 17.8 0 0 0 1.834 2.274 16.424 16.424 0 0 0 2.334 1.766"
                      style="fill:#174159"/>
                <path data-name="Path 70829"
                      d="M41.375 129.649a9.917 9.917 0 0 1 4 1.1c1.519.963 4 2.45 5.016 4.3.468.851-.863 1.031-1.519.536a10.637 10.637 0 0 0-2.166-1.539l-.5-.112a32.757 32.757 0 0 0 1.522 3.017c.516.8.963 2.127-.583 2.191 0 0-1.047 1.358-2.1.351 0 0-.824 1.231-2.15-.475 0 0-.772.975-1.1.6a4.739 4.739 0 0 1-1.687-2.19 42.932 42.932 0 0 0-1.6-4.192z"
                      style="fill:#ffbf9d"/>
                <path data-name="Path 70830"
                      d="M20.29 97.066a5.961 5.961 0 0 0-3.113 2.334 9.522 9.522 0 0 0-.971 5.883c.575 3.976 2.4 10.686 3.425 14.994.351 1.487 1.075 4.148 3.2 5.559l15.142 9.08 4.049-5.995-13.8-11.249-2.73-15.419z"
                      style="fill:#e6e6e6"/>
                <path data-name="Path 70831"
                      d="M17.673 112.221a.853.853 0 0 1 .048.156l.128.467c.108.424.26 1.032.459 1.811l1.675 6.694a7.832 7.832 0 0 0 2.494 3.948 15.006 15.006 0 0 0 2.214 1.471l2.434 1.471 10.906 6.586-.14.032 1.459-2.157 2.589-3.849.02.14-13.68-11.271h-.023v-.028c-.9-3.8-1.559-6.914-1.975-9.08-.2-1.083-.347-1.926-.439-2.5-.04-.279-.072-.5-.1-.655s-.028-.224-.028-.224a2.068 2.068 0 0 1 .052.22c.028.156.068.372.116.651.108.572.263 1.415.487 2.494a243.866 243.866 0 0 0 2.038 9.06l-.028-.044 13.7 11.214.072.06-.052.076-2.59 3.849-1.458 2.162-.052.08-.088-.048-10.882-6.607-2.43-1.475a15.232 15.232 0 0 1-2.23-1.483 7.939 7.939 0 0 1-2.522-4.04 973.963 973.963 0 0 1-1.6-6.71c-.179-.8-.323-1.4-.423-1.819l-.116-.491a1.119 1.119 0 0 1-.036-.16"
                      style="fill:#174159"/>
                <path data-name="Path 70832"
                      d="M17.92 99.2a.958.958 0 0 1 .308-.132 5.958 5.958 0 0 1 .887-.2 5.263 5.263 0 0 1 2.953.4 5.881 5.881 0 0 1 2.206 2 3.573 3.573 0 0 1 .4.819.978.978 0 0 1 .073.324 8.534 8.534 0 0 0-.6-1.059 6.245 6.245 0 0 0-2.174-1.882 5.512 5.512 0 0 0-2.845-.44c-.747.06-1.2.208-1.211.172"
                      style="fill:#174159"/>
                <path data-name="Path 70833"
                      d="m204.171 72.48-3.705-.769 4.69-22.562a4.95 4.95 0 0 0-.732-3.395c-5.9-8.174-15.508-4.854-16.981 2.209l-4.221 20.165-3.7-.774 4.731-22.707a8.082 8.082 0 0 1 4.188-5.529c11.931-6.148 21.943 3.409 19.9 13.206z"
                      style="fill:#e6e6e6"/>
                <path data-name="Path 70834"
                      d="M204.171 72.48s.023-.141.08-.4.131-.662.234-1.173l.938-4.488 1.459-7.086.938-4.417a28.306 28.306 0 0 0 .792-4.981 12.223 12.223 0 0 0-1.154-5.374c-.1-.216-.2-.441-.309-.657l-.375-.633a12.622 12.622 0 0 0-.84-1.224c-.15-.206-.328-.384-.492-.577a5.33 5.33 0 0 0-.516-.558 11.559 11.559 0 0 0-1.163-1.013 12.561 12.561 0 0 0-2.711-1.617L200.3 38l-.426-.141-.394-.1-.793-.206c-.272-.061-.544-.089-.816-.136a12.433 12.433 0 0 0-13.712 8.662c-.343 1.2-.563 2.448-.83 3.695-1.041 5-2.125 10.186-3.227 15.476-.15.708-.295 1.407-.441 2.115l-.07-.108 3.705.774-.1.07c.834-4.009 1.655-7.935 2.448-11.724q.6-2.856 1.177-5.627l.572-2.749a9.87 9.87 0 0 1 .975-2.6 8.965 8.965 0 0 1 3.9-3.62c.2-.089.394-.2.6-.267l.619-.216a9.306 9.306 0 0 1 1.266-.286 9.074 9.074 0 0 1 1.285-.1 4.865 4.865 0 0 1 .638.028h.314l.314.051a8.846 8.846 0 0 1 2.392.68 9.472 9.472 0 0 1 2.049 1.285 8.962 8.962 0 0 1 2.641 3.785 8.5 8.5 0 0 1 .436 4.314l-.085.521c-.032.169-.07.338-.1.506l-.211 1c-.14.661-.276 1.308-.408 1.946-.534 2.542-1.027 4.882-1.468 6.988-.891 4.22-1.585 7.5-2.044 9.7l-.024-.033 2.814.6.685.15.225.052-.221-.042-.68-.132-2.813-.572v-.028l2-9.707c.437-2.111.938-4.451 1.45-7 .131-.633.267-1.285.4-1.946.066-.329.136-.666.206-1 .038-.169.071-.338.108-.511s.052-.343.08-.512a8.376 8.376 0 0 0-.436-4.248 8.8 8.8 0 0 0-2.608-3.719 9.288 9.288 0 0 0-2.026-1.262 8.857 8.857 0 0 0-2.345-.666l-.309-.047h-.312a4.64 4.64 0 0 0-.624 0 9 9 0 0 0-2.5.385l-.61.216a5.559 5.559 0 0 0-.591.262 8.749 8.749 0 0 0-3.826 3.56 9.4 9.4 0 0 0-.938 2.546q-.282 1.365-.573 2.748-.576 2.772-1.172 5.628l-2.443 11.724v.089h-.089l-3.705-.774h-.085v-.089c.146-.7.291-1.407.441-2.115 1.107-5.3 2.186-10.486 3.231-15.476.268-1.252.469-2.5.835-3.714a13.536 13.536 0 0 1 1.618-3.367 12.648 12.648 0 0 1 12.306-5.4c.276.047.553.08.825.136l.938.244.5.159.75.282.347.145a12.593 12.593 0 0 1 2.575 1.562 12.837 12.837 0 0 1 1.172 1.027q.222.241.422.5c.164.2.347.375.493.581a12.89 12.89 0 0 1 .853 1.243l.375.638c.113.22.207.469.314.666a12.341 12.341 0 0 1 1.149 5.435 26.336 26.336 0 0 1-.806 5.008c-.3 1.571-.643 3.049-.938 4.432-.582 2.762-1.088 5.159-1.5 7.086s-.732 3.447-.938 4.469l-.249 1.159c-.051.262-.084.389-.084.389"
                      style="fill:#263238"/>
                <path data-name="Path 70835"
                      d="m177.919 53.307 33.1 6.9a1.754 1.754 0 0 1 1.359 2.075l-5.229 25.1a1.593 1.593 0 0 1-1.886 1.235l-33.256-6.937z"
                      style="fill:#174159"/>
                <g data-name="Group 38964" style="opacity:.3">
                    <g data-name="Group 38963">
                        <g data-name="Group 38962" style="clip-path:url(#ob16owptzd)">
                            <path data-name="Path 70836"
                                  d="m177.936 53.334 32.922 6.86a1.932 1.932 0 0 1 1.5 2.285L207.2 87.225a1.773 1.773 0 0 1-2.1 1.374l-33.079-6.892z"/>
                        </g>
                    </g>
                </g>
                <path data-name="Path 70837"
                      d="m178.2 53.367 28.547 5.948a1.906 1.906 0 0 1 1.476 2.253l-5.048 24.226a2.346 2.346 0 0 1-2.774 1.818l-28.033-5.841a1.971 1.971 0 0 1-1.527-2.33l5.125-24.6a1.9 1.9 0 0 1 2.234-1.479"
                      style="fill:#174159"/>
                <g data-name="Group 38967" style="opacity:.3">
                    <g data-name="Group 38966">
                        <g data-name="Group 38965" style="clip-path:url(#cm83v0jyue)">
                            <path data-name="Path 70838"
                                  d="M194.529 68.977a4.046 4.046 0 0 0-3.135-4.788l-.12-.024a4.1 4.1 0 0 0-4.661 3.128 4.036 4.036 0 0 0 2.087 4.427l-3.728 4.929 6.8 1.548-.938-6.026a4.033 4.033 0 0 0 3.691-3.194"/>
                        </g>
                    </g>
                </g>
                <path data-name="Path 70839"
                      d="M203.289 85.432c-.047 0 .966-4.952 2.26-11.039s2.387-11.021 2.434-11.012-.966 4.957-2.26 11.054-2.387 11.006-2.434 11"
                      style="fill:#263238"/>
                <path data-name="Path 70840"
                      d="M200.982 59.025c0 .047-4.375-.764-9.75-1.81s-9.731-1.932-9.721-1.979 4.375.76 9.754 1.805 9.726 1.918 9.717 1.984"
                      style="fill:#fff"/>
                <path data-name="Path 70841"
                      d="M186.036 69.431a1.4 1.4 0 0 1-.113-.281 3.727 3.727 0 0 1-.15-.812 4.542 4.542 0 0 1 2.57-4.478 4.169 4.169 0 0 1 .779-.282.951.951 0 0 1 .3-.042c0 .033-.417.117-1.022.436a4.689 4.689 0 0 0-2.5 4.357c.023.685.169 1.093.136 1.1"
                      style="fill:#fff"/>
                <path data-name="Path 70842"
                      d="M187.208 71.622c-.033.038-.249-.108-.469-.324s-.389-.417-.356-.469.248.113.469.324a1.321 1.321 0 0 1 .356.469"
                      style="fill:#fff"/>
                <path data-name="Path 70843"
                      d="M197.221 38.2s-.244 0-.685-.047a11.753 11.753 0 0 0-1.876.033 10.88 10.88 0 0 0-9.233 7.086 11.762 11.762 0 0 0-.512 1.791c-.084.432-.122.676-.136.676a.765.765 0 0 1 0-.179 1.792 1.792 0 0 1 .061-.511 10.211 10.211 0 0 1 .469-1.819 10.736 10.736 0 0 1 9.351-7.171 9.881 9.881 0 0 1 1.876.028 3.026 3.026 0 0 1 .507.071.608.608 0 0 1 .178.042"
                      style="fill:#fff"/>
                <path data-name="Path 70844"
                      d="M184 50.771a3.187 3.187 0 0 1 .141-1.05 3.193 3.193 0 0 1 .309-1.009 3.086 3.086 0 0 1-.136 1.046 3.109 3.109 0 0 1-.314 1.013"
                      style="fill:#fff"/>
                <path data-name="Path 70845"
                      d="M212.914 208.271c0 .14-46.864.26-104.657.26s-104.669-.15-104.669-.26 46.854-.26 104.669-.26 104.657.12 104.657.26"
                      style="fill:#174159"/>
            </g>
        </g>
    </g>
</svg>
